<svg viewBox="0 0 170 50" xmlns="http://www.w3.org/2000/svg" fill-rule="evenodd" clip-rule="evenodd" stroke-linejoin="round" stroke-miterlimit="2"><path d="M10.944 46.302h.58l7.725-18.085c.625-1.473 1.34-3.706 1.34-3.706s.625 2.233 1.25 3.706l7.546 18.085h.58L46.846 3.57l-5.089-.003L30.502 31.79c-.58 1.696-1.206 4.33-1.206 4.33s-.714-2.634-1.429-4.33l-7.01-16.477h-.58L13.31 31.79c-.714 1.741-1.473 4.33-1.473 4.33s-.58-2.634-1.161-4.33L5.318 15.625H.36l10.583 30.677z" fill="#fbfbfb" fill-rule="nonzero"/><path d="M168.498 3.565l-126.674.003a.068.068 0 00-.068.068l-.024 4.8h126.766V3.564z" fill="#fbfbfb"/><path d="M51.89 34.826h-5.135c-4.242.045-7.368 1.741-7.368 5.626 0 4.197 3.037 5.939 6.743 5.939 2.768 0 4.555-1.072 5.894-3.081l-.134 2.68h4.51V34.914c0-5.537-3.394-8.082-7.903-8.082-3.974 0-6.207 1.384-7.86 3.349l2.59 2.635c1.028-1.161 2.456-2.233 4.912-2.233 2.412 0 3.751 1.25 3.751 4.242zm0 3.126v1.473c0 2.054-1.875 3.35-4.51 3.35-2.322 0-3.572-.85-3.572-2.457 0-1.652 1.295-2.366 3.26-2.366h4.822zM69.081 46.435c2.412 0 3.885-.892 4.823-1.786l-2.143-3.036c-.492.402-1.161.893-2.233.893-1.161 0-1.876-.625-1.876-2.768V31.03h5.002v-3.795h-5.002v-9.779h-4.51v9.779H60.33v3.795h2.814v8.618c0 5.001 2.41 6.787 5.938 6.787zM86.54 46.39c3.617 0 5.85-1.294 7.68-3.393l-3.08-2.679c-1.027 1.161-2.367 2.099-4.6 2.099-3.348 0-5.358-2.456-5.358-5.805 0-3.349 2.01-5.805 5.359-5.805 1.92 0 3.482.893 4.375 2.188l3.215-2.59c-1.786-2.232-4.063-3.572-7.59-3.572-5.716 0-10.003 4.197-10.003 9.779 0 5.626 4.287 9.779 10.003 9.779zM98.507 45.99h4.51V35.807c0-3.036 1.92-4.822 4.867-4.822 2.635 0 3.885 1.563 3.885 4.242v10.761h4.51V34.871c0-5.09-2.858-8.038-7.01-8.038-2.814 0-5.046 1.384-6.252 3.706V13.75h-4.51v32.24zM124.227 22.948c1.608 0 2.992-1.205 2.992-2.991 0-1.697-1.384-2.947-2.992-2.947-1.607 0-2.992 1.25-2.992 2.947 0 1.786 1.385 2.991 2.992 2.991zM121.95 45.99h4.555V27.235h-4.555v18.754zM136.015 38.13h15.093c.313-6.564-3.305-11.297-9.69-11.297-5.625 0-10.002 4.197-10.002 9.779 0 5.626 4.152 9.779 10.583 9.779 3.751 0 6.162-1.295 7.903-3.037l-2.635-2.768c-1.07 1.027-2.856 2.01-5.313 2.01-3.437 0-5.403-1.742-5.939-4.466zm0-3.125c.536-2.814 2.545-4.421 5.449-4.421 3.124 0 4.688 1.875 5.09 4.42h-10.539zM162.36 46.39c5.314 0 7.278-2.634 7.278-5.849 0-3.974-3.214-5.135-6.161-5.894-2.947-.759-4.108-1.071-4.108-2.5 0-1.117.938-1.742 2.634-1.742s2.992.804 3.885 1.831l2.635-2.59c-1.43-1.563-3.528-2.813-6.52-2.813-3.705 0-6.697 1.786-6.697 5.537 0 3.706 2.767 5.001 5.537 5.76 3.17.893 4.554 1.117 4.554 2.635 0 1.25-1.026 2.01-3.305 2.01-2.143 0-3.885-.76-5.045-2.412l-3.08 2.143c1.248 2.01 4.106 3.885 8.393 3.885z" fill="#fbfbfb" fill-rule="nonzero"/></svg>