<?xml version="1.0" encoding="UTF-8" standalone="no"?>
<!DOCTYPE svg PUBLIC "-//W3C//DTD SVG 1.1//EN" "http://www.w3.org/Graphics/SVG/1.1/DTD/svg11.dtd">
<svg width="100%" height="100%" viewBox="0 0 170 50" version="1.1" xmlns="http://www.w3.org/2000/svg" xmlns:xlink="http://www.w3.org/1999/xlink" xml:space="preserve" xmlns:serif="http://www.serif.com/" style="fill-rule:evenodd;clip-rule:evenodd;stroke-linejoin:round;stroke-miterlimit:2;">
    <g transform="matrix(0.150506,0,0,0.150506,-16.2787,-29.5583)">
        <g>
            <path d="M180.873,504.032L184.73,504.032L236.056,383.876C240.21,374.085 244.957,359.251 244.957,359.251C244.957,359.251 249.11,374.085 253.264,383.876L303.403,504.032L307.26,504.032L419.411,220.119L385.599,220.1L310.82,407.611C306.963,418.885 302.81,436.389 302.81,436.389C302.81,436.389 298.063,418.885 293.316,407.611L246.737,298.135L242.88,298.135L196.597,407.611C191.851,419.181 186.807,436.389 186.807,436.389C186.807,436.389 182.95,418.885 179.093,407.611L143.491,300.212L110.559,300.212L180.873,504.032Z" style="fill:rgb(55,51,45);fill-rule:nonzero;"/>
            <g transform="matrix(2.92614,2.498e-16,-4.45464e-16,1.7824,-455.894,-299.122)">
                <path d="M575.364,291.292C575.364,291.292 295.256,291.305 287.732,291.305C287.646,291.305 287.577,291.419 287.577,291.559C287.57,293.752 287.522,309.449 287.522,309.449L575.364,309.449L575.364,291.292Z" style="fill:rgb(55,51,45);"/>
            </g>
        </g>
        <path d="M452.931,427.785L418.813,427.785C390.628,428.082 369.86,439.356 369.86,465.167C369.86,493.055 390.034,504.626 414.659,504.626C433.053,504.626 444.921,497.505 453.821,484.155L452.931,501.956L482.896,501.956L482.896,428.378C482.896,391.59 460.348,374.679 430.383,374.679C403.979,374.679 389.144,383.876 378.167,396.93L395.375,414.434C402.198,406.721 411.692,399.6 428.01,399.6C444.031,399.6 452.931,407.907 452.931,427.785ZM452.931,448.553L452.931,458.343C452.931,471.991 440.471,480.595 422.966,480.595C407.539,480.595 399.232,474.958 399.232,464.277C399.232,453.3 407.835,448.553 420.889,448.553L452.931,448.553Z" style="fill:rgb(55,51,45);fill-rule:nonzero;"/>
        <path d="M567.154,504.922C583.175,504.922 592.965,498.989 599.196,493.055L584.955,472.881C581.691,475.551 577.241,478.814 570.121,478.814C562.407,478.814 557.66,474.661 557.66,460.42L557.66,402.567L590.889,402.567L590.889,377.349L557.66,377.349L557.66,312.375L527.695,312.375L527.695,377.349L509.004,377.349L509.004,402.567L527.695,402.567L527.695,459.827C527.695,493.055 543.716,504.922 567.154,504.922Z" style="fill:rgb(55,51,45);fill-rule:nonzero;"/>
        <path d="M683.157,504.626C707.188,504.626 722.022,496.022 734.186,482.078L713.715,464.277C706.891,471.991 697.991,478.221 683.157,478.221C660.906,478.221 647.555,461.904 647.555,439.652C647.555,417.401 660.906,401.084 683.157,401.084C695.914,401.084 706.298,407.017 712.232,415.621L733.593,398.413C721.726,383.579 706.595,374.679 683.157,374.679C645.182,374.679 616.7,402.567 616.7,439.652C616.7,477.034 645.182,504.626 683.157,504.626Z" style="fill:rgb(55,51,45);fill-rule:nonzero;"/>
        <path d="M762.668,501.956L792.633,501.956L792.633,434.312C792.633,414.138 805.39,402.27 824.971,402.27C842.475,402.27 850.783,412.654 850.783,430.455L850.783,501.956L880.747,501.956L880.747,428.082C880.747,394.26 861.76,374.679 834.168,374.679C815.477,374.679 800.643,383.876 792.633,399.303L792.633,287.751L762.668,287.751L762.668,501.956Z" style="fill:rgb(55,51,45);fill-rule:nonzero;"/>
        <path d="M933.557,348.867C944.238,348.867 953.435,340.857 953.435,328.99C953.435,317.716 944.238,309.409 933.557,309.409C922.876,309.409 913.679,317.716 913.679,328.99C913.679,340.857 922.876,348.867 933.557,348.867ZM918.426,501.956L948.688,501.956L948.688,377.349L918.426,377.349L918.426,501.956Z" style="fill:rgb(55,51,45);fill-rule:nonzero;"/>
        <path d="M1011.88,449.74L1112.16,449.74C1114.24,406.127 1090.2,374.679 1047.78,374.679C1010.4,374.679 981.323,402.567 981.323,439.652C981.323,477.034 1008.91,504.626 1051.64,504.626C1076.56,504.626 1092.58,496.022 1104.15,484.451L1086.64,466.057C1079.53,472.881 1067.66,479.408 1051.34,479.408C1028.5,479.408 1015.44,467.837 1011.88,449.74ZM1011.88,428.972C1015.44,410.281 1028.79,399.6 1048.08,399.6C1068.84,399.6 1079.23,412.061 1081.9,428.972L1011.88,428.972Z" style="fill:rgb(55,51,45);fill-rule:nonzero;"/>
        <path d="M1186.92,504.626C1222.23,504.626 1235.28,487.122 1235.28,465.76C1235.28,439.356 1213.92,431.642 1194.34,426.598C1174.76,421.555 1167.05,419.478 1167.05,409.984C1167.05,402.567 1173.28,398.413 1184.55,398.413C1195.82,398.413 1204.43,403.754 1210.36,410.577L1227.87,393.37C1218.37,382.986 1204.43,374.679 1184.55,374.679C1159.93,374.679 1140.05,386.546 1140.05,411.467C1140.05,436.092 1158.44,444.696 1176.84,449.74C1197.9,455.673 1207.1,457.157 1207.1,467.244C1207.1,475.551 1200.28,480.595 1185.14,480.595C1170.9,480.595 1159.33,475.551 1151.62,464.574L1131.15,478.814C1139.45,492.165 1158.44,504.626 1186.92,504.626Z" style="fill:rgb(55,51,45);fill-rule:nonzero;"/>
    </g>
</svg>
